{"title":"Geordie Shore S14E10 1080P WEB-DL AAC2 0 H 264","magnet":"magnet:?xt=urn:btih:453bdb2f9f1c445e0834b55e3b514afe5adf17a2&dn=Geordie+Shore+S14E10+1080P+WEB-DL+AAC2+0+H+264&tr=udp%3A%2F%2Ftracker.leechers-paradise.org%3A6969&tr=udp%3A%2F%2Fzer0day.ch%3A1337&tr=udp%3A%2F%2Fopen.demonii.com%3A1337&tr=udp%3A%2F%2Ftracker.coppersurfer.tk%3A6969&tr=udp%3A%2F%2Fexodus.desync.com%3A6969","uploader":"jmanwf","categoryP":"video","categoryS":"hd___tv_shows","size":"1624332391","seeders":"42","leechers":"113","description":"The Squad head back to the toon and give the newbies their most brutal initiation yet! Zahida and / Why-Aye! The Geordies are back home in Newcastle. It&apos;s gonna be another jaw-dropping season with new faces and new drama. Buzzin&apos;!\r\n\r\n\r\nVideo\r\nID                                       : 2\r\nFormat                                   : AVC\r\nFormat/Info                              : Advanced Video Codec\r\nFormat profile                           : <a class=\"__cf_email__\" href=\"/cdn-cgi/l/email-protection\" data-cfemail=\"2f674648476f631b\">[email&#xA0;protected]</a><script data-cfhash=\"f9e31\" type=\"text/javascript\">/* <![CDATA[ */!function(t,e,r,n,c,a,p){try{t=document.currentScript||function(){for(t=document.getElementsByTagName('script'),e=t.length;e--;)if(t[e].getAttribute('data-cfhash'))return t[e]}();if(t&&(c=t.previousSibling)){p=t.parentNode;if(a=c.getAttribute('data-cfemail')){for(e='',r='0x'+a.substr(0,2)|0,n=2;a.length-n;n+=2)e+='%'+('0'+('0x'+a.substr(n,2)^r).toString(16)).slice(-2);p.replaceChild(document.createTextNode(decodeURIComponent(e)),c)}p.removeChild(t)}}catch(u){}}()/* ]]> */</script>\r\nFormat settings, CABAC                   : Yes\r\nFormat settings, ReFrames                : 4 frames\r\nCodec ID                                 : avc1\r\nCodec ID/Info                            : Advanced Video Coding\r\nDuration                                 : 40 min 49 s\r\nBit rate                                 : 5 176 kb/s\r\nWidth                                    : 1 920 pixels\r\nHeight                                   : 1 080 pixels\r\nDisplay aspect ratio                     : 16:9\r\nFrame rate mode                          : Constant\r\nFrame rate                               : 25.000 FPS\r\nColor space                              : YUV\r\nChroma subsampling                       : 4:2:0\r\nBit depth                                : 8 bits\r\nScan type                                : Progressive\r\nBits/(Pixel*Frame)                       : 0.100\r\nStream size                              : 1.48 GiB (98%)\r\nLanguage                                 : English\r\nEncoded date                             : UTC 2017-05-31 04:36:35\r\nTagged date                              : UTC 2017-05-31 04:37:37\r\nColor range                              : Limited\r\nColor primaries                          : BT.709\r\nTransfer characteristics                 : BT.709\r\nMatrix coefficients                      : BT.709\r\n\r\nAudio\r\nID                                       : 1\r\nFormat                                   : AAC\r\nFormat/Info                              : Advanced Audio Codec\r\nFormat profile                           : LC\r\nCodec ID                                 : 40\r\nDuration                                 : 40 min 49 s\r\nBit rate mode                            : Variable\r\nBit rate                                 : 126 kb/s\r\nMaximum bit rate                         : 195 kb/s\r\nChannel(s)                               : 2 channels\r\nChannel positions                        : Front: L R\r\nSampling rate                            : 48.0 kHz\r\nFrame rate                               : 46.875 FPS (1024 spf)\r\nCompression mode                         : Lossy\r\nStream size                              : 36.7 MiB (2%)\r\nLanguage                                 : English\r\nDefault                                  : Yes\r\nAlternate group                          : 1\r\nEncoded date                             : UTC 2017-05-31 04:36:35\r\nTagged date                              : UTC 2017-05-31 04:37:37","last_updated":"2017-05-31T12:06:05.739Z","parsed":{"xt":"urn:btih:453bdb2f9f1c445e0834b55e3b514afe5adf17a2","dn":"Geordie Shore S14E10 1080P WEB-DL AAC2 0 H 264","tr":["udp://exodus.desync.com:6969","udp://open.demonii.com:1337","udp://tracker.coppersurfer.tk:6969","udp://tracker.leechers-paradise.org:6969","udp://zer0day.ch:1337"],"infoHash":"453bdb2f9f1c445e0834b55e3b514afe5adf17a2","infoHashBuffer":{"type":"Buffer","data":[69,59,219,47,159,28,68,94,8,52,181,94,59,81,74,254,90,223,23,162]},"name":"Geordie Shore S14E10 1080P WEB-DL AAC2 0 H 264","announce":["udp://exodus.desync.com:6969","udp://open.demonii.com:1337","udp://tracker.coppersurfer.tk:6969","udp://tracker.leechers-paradise.org:6969","udp://zer0day.ch:1337"],"urlList":[]}}